<?xml version="1.0" encoding="UTF-8"?>
<!-- Generated by Pixelmator Pro 2.4.6 -->
<svg viewBox="0 0 368 494" xmlns="http://www.w3.org/2000/svg" xmlns:xlink="http://www.w3.org/1999/xlink">
    <g id="g5317">
        <g id="g5319">
            <g id="g5321">
                <g id="g5327">
                    <path id="path5329" fill="#000000" fill-rule="evenodd" stroke="none" d="M 180.585327 308.748718 C 200.170654 306.75 220.312012 306.038025 240.001343 305.616699 C 269.303955 304.992676 298.695984 305.192688 328 305.692688 L 344.44397 305.972717 L 340.731995 319.530029 C 333.462646 346.085999 326.318665 372.666016 319.135986 399.238037 C 314.581299 416.092712 310.085327 433.024658 305.07196 449.783325 C 293.985291 486.848694 217.033325 493.676697 180.585327 493.676697 C 144.138672 493.676697 67.185303 486.848694 56.098663 449.783325 C 51.085327 433.024658 46.589325 416.092712 42.034637 399.238037 C 34.85199 372.666016 27.70932 346.085999 20.43866 319.530029 L 16.726654 305.972717 L 33.171997 305.692688 C 62.47464 305.192688 91.866638 304.992676 121.169312 305.616699 C 140.859985 306.038025 161.001343 306.75 180.585327 308.748718" />
                </g>
                <g id="g5331">
                    <path id="path5333" fill="#97d7f7" fill-rule="evenodd" stroke="none" d="M 33.440125 316.98175 C 100.91748 315.83374 149.962769 316.880432 180.585449 320.124451 C 211.209473 316.880432 260.253479 315.83374 327.730774 316.98175 C 310.508118 379.896423 299.20813 423.363098 292.134766 447.012451 C 278.026794 494.176392 83.144135 494.176392 69.036133 447.012451 C 61.962799 423.363098 50.662781 379.896423 33.440125 316.98175" />
                </g>
                <g id="g5335">
                    <path id="path5337" fill="#6dc6f2" fill-rule="evenodd" stroke="none" d="M 321.27533 340.660156 C 319.549988 347.013489 319.047302 342.060181 317.458008 347.941467 C 276.603333 375.020142 213.111328 371.541504 161.937988 354.164185 C 117.116638 363.389465 96.089966 354.737488 98.380676 388.841492 C 99.760681 409.392151 104.299316 429.774841 112.503357 440.698792 C 153.001953 494.630798 257.854004 470.510803 291.983337 447.426819 C 276.848633 494.170837 83.10199 494.03479 69.036652 447.013489 C 62.256653 424.348145 51.596649 383.478821 35.560669 324.738831 C 141.545959 332.698853 236.148621 337.744141 319.364624 339.874817 C 320.100647 340.057495 320.736633 340.318848 321.27533 340.660156" />
                </g>
                <g id="g5339">
                    <path id="path5341" fill="#5abced" fill-rule="evenodd" stroke="none" d="M 93.696655 462.079468 C 97.130005 463.695496 100.679321 465.063477 104.016663 466.198181 L 84.508667 331.404846 C 78.881989 330.772827 72.949982 331.459473 66.712646 333.468811 Z" />
                </g>
                <g id="g5343">
                    <path id="path5345" fill="#5abced" fill-rule="evenodd" stroke="none" d="M 131.089172 472.780029 C 134.194519 473.304016 137.330505 473.765381 140.481201 474.170715 L 137.657166 337.512024 C 132.141174 336.358704 126.158508 336.48938 119.709167 337.906677 Z" />
                </g>
                <g id="g5347">
                    <path id="path5349" fill="#5abced" fill-rule="evenodd" stroke="none" d="M 176.279968 476.580688 C 177.723999 476.598022 179.161316 476.607361 180.585327 476.607361 C 181.570679 476.607361 182.559998 476.603333 183.554626 476.593994 L 185.3573 343.995361 C 177.630676 328.168701 171.903992 328.856689 168.179993 346.058044 Z" />
                </g>
                <g id="g5351">
                    <path id="path5353" fill="#5abced" fill-rule="evenodd" stroke="none" d="M 255.306641 466.809875 C 258.550659 465.764526 262.067993 464.485901 265.529297 462.963196 L 292.698669 333.468567 C 286.461304 331.459229 280.529297 330.772583 274.902649 331.404541 Z" />
                </g>
                <g id="g5355">
                    <path id="path5357" fill="#5abced" fill-rule="evenodd" stroke="none" d="M 218.925049 474.391907 C 222.067688 474.007874 225.197021 473.570557 228.298401 473.074524 L 239.702393 337.906555 C 233.254395 336.489197 227.271729 336.357239 221.754395 337.511902 Z" />
                </g>
                <g id="g5359">
                    <path id="path5361" fill="#e40035" fill-rule="evenodd" stroke="none" d="M 194.876892 9.601685 C 212.907593 9.601685 227.526245 24.218994 227.526245 42.249634 C 227.526245 60.281616 212.907593 74.898926 194.876892 74.898926 C 176.84491 74.898926 162.2276 60.281616 162.2276 42.249634 C 162.2276 24.218994 176.84491 9.601685 194.876892 9.601685" />
                </g>
                <g id="g5363">
                    <path id="path5365" fill="#ffffff" fill-rule="evenodd" stroke="none" d="M 215.112 29.760376 C 219.481323 29.760376 223.023987 34.145752 223.023987 39.555054 C 223.023987 44.964478 219.481323 49.349731 215.112 49.349731 C 210.742676 49.349731 207.200012 44.964478 207.200012 39.555054 C 207.200012 34.145752 210.742676 29.760376 215.112 29.760376" />
                </g>
                <g id="g5367">
                    <path id="path5369" fill="#ffffff" fill-rule="evenodd" stroke="none" d="M 40.045593 237.616577 C 26.493591 212.459229 30.9216 184.968506 70.906921 169.873901 C 63.258911 148.765869 74.932251 129.744507 106.598938 117.349854 C 95.857605 72.631226 117.753601 48.919189 156.532227 48.919189 C 144.053589 97.14856 268.437561 63.153931 251.530945 130.405884 C 279.924255 136.153931 294.504211 153.259277 290.173584 176.059204 C 327.841553 181.693848 347.872253 210.665894 333.380249 243.311218 C 352.937561 250.86322 364.888245 268.727234 367.198914 287.609863 C 375.792236 357.86322 239.040283 400.085876 159.457581 349.745911 C -14.70108 386.685913 -22.485077 254.767212 40.045593 237.616577" />
                </g>
                <g id="g5371">
                    <path id="path5373" fill="#ffffff" fill-rule="evenodd" stroke="none" d="M 298.363342 266.13031 C 323.455322 242.300964 303.288635 196.999634 266.904663 195.042236 C 316.393982 180.416992 341.503296 245.138306 298.363342 266.13031" />
                </g>
                <g id="g5375">
                    <path id="path5377" fill="#ffffff" fill-rule="evenodd" stroke="none" d="M 110.703064 281.382813 C 83.817719 277.793518 58.412384 266.534851 43.837738 273.482849 C 12.841705 288.25885 26.648376 336.200134 75.485718 340.238831 C 100.18573 342.280151 125.417725 336.154846 135.62439 321.965515 C 144.569702 337.448181 156.732361 346.341492 156.732361 346.341492 C 108.409729 359.828125 69.355042 354.902832 44.635071 343.593506 C 41.279053 343.545471 41.115051 342.41217 34.549713 341.176147 C -14.223602 313.829468 -3.723602 245.838806 47.140381 237.861511 C 25.373718 210.270874 42.827057 179.145508 74.203064 170.560181 C 69.531067 178.092163 159.048401 217.214844 226.653687 205.664185 C 187.879028 214.664185 146.908386 207.000122 107.305725 194.965454 C 81.807068 187.216187 74.441711 199.892212 75.48172 212.473511 C 77.263062 234.022827 96.897705 248.040161 123.228394 256.865479 C 180.243042 275.977478 250.835022 272.52948 305.989685 260.6828 C 257.572388 290.005493 166.50708 288.833496 110.703064 281.382813" />
                </g>
                <g id="g5379">
                    <path id="path5381" fill="#fefefe" fill-rule="evenodd" stroke="none" d="M 36.07547 237.395203 C 39.324799 241.405884 45.498108 247.760559 49.148804 252.10321 C 25.588776 253.873901 11.442108 274.264587 11.018127 307.665894 C 3.342133 274.896545 10.242126 251.473877 36.07547 237.395203" />
                </g>
                <g id="g5383">
                    <path id="path5385" fill="#ffffff" fill-rule="evenodd" stroke="none" d="M 52.768921 177.369263 C 35.546265 187.966553 33.247589 204.979858 45.88092 228.407898 C 40.312927 202.561279 64.400909 179.926514 78.836914 187.553223 C 76.270264 183.763916 71.238251 177.797241 68.219574 174.299927 C 62.476929 174.613281 57.326263 175.635864 52.768921 177.369263" />
                </g>
                <g id="g5387">
                    <path id="path5389" fill="#ffffff" fill-rule="evenodd" stroke="none" d="M 44.527985 234.163513 C 68.651978 263.722168 132.833313 277.239502 237.081299 274.710144 C 158.039978 296.066162 45.225311 274.36084 29.955994 241.812805 C 33.639984 238.995483 37.282654 236.84613 40.885315 235.364807 C 42.255981 234.962158 43.470642 234.560852 44.527985 234.163513" />
                </g>
                <g id="g5391">
                    <path id="path5393" fill="#ffffff" fill-rule="evenodd" stroke="none" d="M 339.76239 273.891907 C 358.006409 341.891907 197.659729 391.094543 122.278381 303.715881 C 123.255737 324.329224 139.151733 338.079895 150.341064 350.52124 C 111.45575 358.921204 74.422394 355.81189 39.239716 341.19458 C 71.401062 362.875916 112.729065 366.269226 160.001038 353.422546 C 264.826355 411.698547 389.091736 327.251892 339.76239 273.891907" />
                </g>
                <g id="g5395">
                    <path id="path5397" fill="#ffffff" fill-rule="evenodd" stroke="none" d="M 324.78186 250.468811 C 316.33783 255.911499 311.253845 260.996826 309.529846 265.720825 C 334.54187 273.395508 345.07251 291.552795 341.124512 320.194153 C 357.397827 292.303467 351.951172 269.060852 324.78186 250.468811" />
                </g>
                <g id="g5399">
                    <path id="path5401" fill="#ffffff" fill-rule="evenodd" stroke="none" d="M 256.360657 150.041748 C 274.769958 110.18042 121.160645 140.167114 120.980652 86.576416 C 120.947327 76.625732 129.513977 66.157715 142.308655 61.681763 C 117.605957 59.77771 103.292664 74.505737 99.371338 105.861816 C 106.051331 113.132446 117.226013 119.297729 134.740662 124.376465 C 173.589966 135.641724 226.764648 126.85376 256.360657 150.041748" />
                </g>
                <g id="g5403">
                    <path id="path5405" fill="#ffffff" fill-rule="evenodd" stroke="none" d="M 115.856812 115.99939 C 79.226135 121.030029 50.010132 155.842041 85.204773 185.671387 C 110.219482 206.875366 220.875427 215.469971 251.380798 203.078003 C 198.660767 201.442017 154.638123 194.953979 128.81543 185.236694 C 88.640778 170.12207 89.731445 133.624634 115.856812 115.99939" />
                </g>
                <g id="g5407">
                    <path id="path5409" fill="#fefefe" fill-rule="evenodd" stroke="none" d="M 102.09436 119.18042 C 107.326416 116.133789 110.289063 118.388428 116.014404 127.49646 C 90.275696 128.993774 74.921051 148.808472 79.245056 172.164429 C 59.815735 133.908447 96.447693 122.469727 102.09436 119.18042" />
                </g>
                <g id="g5411">
                    <path id="path5413" fill="#ffffff" fill-rule="evenodd" stroke="none" d="M 141.92572 54.287109 C 135.709717 103.803101 256.589722 77.893799 243.496399 122.456421 C 216.541748 91.863037 109.156372 112.455078 141.92572 54.287109" />
                </g>
                <g id="g5415">
                    <path id="path5417" fill="#ffffff" fill-rule="evenodd" stroke="none" d="M 101.306641 111.290405 C 132.219971 135.395752 308.167969 120.958374 267.858643 188.914429 C 272.47998 153.909058 223.243958 146.231812 197.314636 144.927734 C 150.578674 142.577148 99.646667 141.2771 101.306641 111.290405" />
                </g>
                <g id="g5419">
                    <path id="path5421" fill="#000000" fill-rule="evenodd" stroke="none" d="M 149.554626 51.863892 C 114.294678 52.555908 85.965332 86.905273 102.641296 112.44519 C 126.201294 148.529175 225.484009 123.466553 261.671997 152.895874 C 275.203979 163.899902 276.57196 180.422607 259.581299 197.411865 C 309.805298 180.509277 343.711975 232.493225 293.867981 270.079895 C 306.529297 271.559875 321.170654 258.086548 327.777344 248.153198 C 347.303955 209.415894 310.200012 181.461182 283.062622 181.949219 C 285.70929 171.773193 284.454651 163.44519 280.405334 156.613281 C 261.274658 124.342529 185.589294 130.602539 149.588013 122.426514 C 124.037292 116.625244 105.538635 106.075928 111.773315 84.60791 C 115.023987 73.413208 126.758667 64.073242 139.291992 62.141235 C 145.41864 108.805176 248.301331 86.393188 244.687988 125.129272 C 262.666626 71.542603 145.466675 101.755859 149.554626 51.863892" />
                </g>
                <g id="g5423">
                    <path id="path5425" fill="#000000" fill-rule="evenodd" stroke="none" d="M 40.835327 235.149109 C -20.403351 269.062439 11.437988 380.373108 150.325989 342.870422 C 149.261963 343.289124 162.920654 354.158447 165.169983 354.854431 C -2.996674 405.023743 -39.456665 263.238403 40.835327 235.149109" />
                </g>
                <g id="g5427" />
                <g id="g5431" />
                <g id="g5435" />
                <g id="g5439">
                    <path id="path5441" fill="#ffffff" fill-rule="evenodd" stroke="none" d="M 70.771454 168.360718 C 87.0448 191.563354 135.124756 201.702026 215.01947 207.435303 C 148.842102 225.391357 70.970123 204.559326 58.278107 175.686035 C 59.335449 174.94873 71.360779 169.210083 70.771454 168.360718" />
                </g>
                <g id="g5443">
                    <path id="path5445" fill="#000000" fill-rule="evenodd" stroke="none" d="M 206.359314 208.701172 C 156.099304 211.601196 82.939331 202.425171 66.391327 169.997192 C 59.48999 156.471924 66.307312 128.449219 94.769958 123.13855 C 68.639313 139.747925 66.832672 165.32251 93.760681 181.490601 C 120.573975 197.587891 169.40863 205.491943 206.376648 204.806519 C 219.649963 205.529175 222.645996 206.481201 206.359314 208.701172" />
                </g>
                <g id="g5447">
                    <path id="path5449" fill="#000000" fill-rule="evenodd" stroke="none" d="M 228.557312 275.382813 C 176.391968 282.225464 85.290649 274.37616 47.903992 245.826843 C 17.899994 222.914795 28.039978 175.02417 67.806641 174.070801 C 30.627991 190.140137 37.531982 224.188171 65.762665 242.570801 C 103.314636 267.021484 179.82135 275.352173 228.569336 272.738831 C 239.805298 272.52948 238.714661 273.756165 228.557312 275.382813" />
                </g>
                <g id="g5451">
                    <path id="path5453" fill="#000000" fill-rule="evenodd" stroke="none" d="M 313.20636 255.780029 C 317.202393 250.918701 320.470398 246.56134 323.011719 245.97467 C 350.459717 254.670715 363.098389 283.904053 358.146362 308.074707 C 349.771729 348.961365 301.739685 369.918701 264.045044 374.257385 C 209.477051 380.542664 147.167725 361.452026 128.543701 317.878662 C 146.143738 330.892029 163.303711 345.929382 181.246399 352.197388 C 236.02771 371.334717 294.127686 360.700012 323.829041 337.217346 C 353.595703 313.681335 352.154358 267.492004 313.20636 255.780029" />
                </g>
                <g id="g5455" />
                <g id="g5459" />
                <g id="g5463" />
                <g id="g5467" />
                <g id="g5471" />
                <g id="g5475" />
                <g id="g5479" />
                <g id="g5483" />
                <g id="g5487" />
                <g id="g5491" />
                <g id="g5495" />
                <g id="g5499" />
                <g id="g5503">
                    <path id="path5505" fill="#ffffff" fill-rule="evenodd" stroke="none" d="M 136.502014 306.039063 C 148.190002 336.147095 213.071289 357.56311 251.209961 340.343079 C 197.976624 339.089783 160.063293 327.097778 136.502014 306.039063" />
                </g>
                <g id="g5507">
                    <path id="path5509" fill="#450523" stroke="none" d="M 202.770813 25.770874 C 202.461426 27.630859 200.589478 28.904175 198.590759 28.616211 C 196.592102 28.328125 195.222778 26.588135 195.532104 24.728149 C 196.644104 18.162842 201.258789 12.085449 207.053467 7.669556 C 213.342773 2.878784 221.193481 -0.063843 227.597473 0.364136 C 229.620117 0.496216 231.142761 2.129517 231.001465 4.010864 C 230.858765 5.892212 229.104126 7.309448 227.080139 7.17749 C 222.530762 6.873535 216.641479 9.200195 211.70813 12.960205 C 207.164124 16.421509 203.576111 21.012207 202.770813 25.770874" />
                </g>
                <g id="g5511">
                    <path id="path5513" fill="#450523" fill-rule="evenodd" stroke="none" d="M 199.518921 18.946045 C 203.153564 19.571411 205.654907 22.661987 205.105591 25.849976 C 204.557556 29.036743 201.166931 31.112671 197.530945 30.487305 C 193.897583 29.862061 191.39624 26.771362 191.944275 23.583374 C 192.493591 20.396729 195.882935 18.320679 199.518921 18.946045" />
                </g>
                <g id="g5515" />
                <g id="g5519" />
                <g id="g5523" />
                <g id="g5527" />
                <g id="g5531" />
                <g id="g5535" />
                <g id="g5539" />
            </g>
        </g>
    </g>
</svg>
