<svg xmlns="http://www.w3.org/2000/svg" xml:space="preserve" style="fill-rule:evenodd;clip-rule:evenodd;stroke-linecap:round;stroke-linejoin:round;stroke-miterlimit:1.5" viewBox="0 0 141 140"><path d="M0 0h1920v1080H0z" style="fill:none" transform="matrix(.07292 0 0 .12963 .5 0)"/><path d="M284 39.01c.165-.007.332-.01.5-.01h0c6.904 0 12.5 5.596 12.5 12.5h0c0 1.768-.367 3.45-1.029 4.974 5.302 1.472 9.722 4.346 9.722 9.865 0 1.033-.164 1.972-.491 2.822 4.18 1.852 7.11 4.725 7.11 9.163 0 1.35-.493 2.549-1.37 3.609C314.593 83.583 317 86.116 317 90c0 2.262-.867 4.254-2.575 5.955.488.07.942.139 1.362.205a4.285 4.285 0 0 1 3.21 5.146l-.106.452-9.981 39.962c-1.056 4.632-12.262 8.28-25.91 8.28s-24.854-3.648-25.91-8.28h-.008l-9.973-39.962-.106-.452a4.28 4.28 0 0 1 3.21-5.146c.42-.066.874-.135 1.362-.205C249.867 94.254 249 92.262 249 90c0-3.884 2.407-6.417 6.058-8.067-.877-1.06-1.37-2.259-1.37-3.609 0-4.438 2.93-7.311 7.11-9.163-.327-.85-.491-1.789-.491-2.822 0-5.521 4.422-8.395 9.725-9.866A12.5 12.5 0 0 1 269 51.5s0 0 0 0A12.501 12.501 0 0 1 281.5 39h2.5v.01Zm-36.835 62.9.099.268a3.627 3.627 0 0 1-.099-.268Zm71.67 0a3.627 3.627 0 0 1-.099.268l.099-.268Z" style="fill:none;stroke:#000;stroke-width:10px" transform="translate(-212.5 -24)"/><path d="m6009.34 94.002 1.26.033.28.015c15.6.25 25.03 1.34 29.91 2.11a4.286 4.286 0 0 1 3.21 5.146c-.07.279-.11.452-.11.452L6039 115h-62l-4.89-13.242s-.04-.173-.11-.452a4.286 4.286 0 0 1 3.21-5.146c4.88-.77 14.31-1.86 29.91-2.11l.28-.015 1.26-.033L6008 94l1.34.002Z" style="fill:#d99e5c" transform="translate(-5937.504 -24)"/><path d="M259.274 144.68c-1.187-.916-1.945-1.913-2.184-2.96h-.008l-9.973-39.962h.011c.327 1.231 1.457 2.4 3.245 3.466l1.674 3.816 1.882-2.142a43.962 43.962 0 0 0 4.677 1.458l1.65 2.427 1.607-1.684c2.562.519 5.38.945 8.389 1.263l1.157 2.283 1.968-1.999c2.587.2 5.293.321 8.081.354l1.23 1.037 1.87-1.037c2.786-.033 5.491-.154 8.081-.354l.614 1.391 2.511-1.675c3.01-.318 5.827-.744 8.389-1.263l1.535 1.263 1.722-2.006a43.804 43.804 0 0 0 4.677-1.458l1.363 1.458 2.193-3.132c1.788-1.066 2.918-2.235 3.245-3.466h.011l-9.981 39.962c-.239 1.047-.997 2.044-2.184 2.96l-1.359-1.186-2.278 3.216c-.592.249-1.223.488-1.888.714l-.987-1.757-2.303 2.705a52.416 52.416 0 0 1-4.666.901l-1.433-2.449-1.698 2.834a71.615 71.615 0 0 1-5.564.326l-1.663-2.028-1.437 2.028a71.674 71.674 0 0 1-5.564-.326l-1.975-2.114-1.156 1.729a52.416 52.416 0 0 1-4.666-.901l-1.963-2.199-1.327 1.251a28.902 28.902 0 0 1-1.888-.714l-2.545-3.281-1.092 1.251Z" style="fill:#eddbb1" transform="translate(-212.495 -24)"/><path d="M284.55 111v38.984a72.408 72.408 0 0 1-3.1 0V111a132.837 132.837 0 0 0 3.1 0Zm11.206-.638-2.511 38.911c-1.012.151-2.057.28-3.131.385l2.517-39.012c1.062-.082 2.105-.177 3.125-.284Zm-25.512 0c1.021.107 2.063.203 3.125.284l2.517 39.012a62.468 62.468 0 0 1-3.131-.385l-2.511-38.911Zm37.158-2.006-6.201 39.068a38.579 38.579 0 0 1-3.29.948l6.234-39.273a64.454 64.454 0 0 0 3.257-.743Zm-48.804 0c1.032.265 2.119.513 3.257.743l6.234 39.273a38.792 38.792 0 0 1-3.29-.948l-6.201-39.068Zm57.037-3.132-8.909 39.456c-.952.734-2.179 1.416-3.637 2.03l8.99-39.812c1.371-.522 2.565-1.082 3.556-1.674Zm-65.27 0c.991.592 2.185 1.152 3.556 1.674l8.99 39.812c-1.458-.614-2.685-1.296-3.637-2.03l-8.909-39.456Z" style="fill:#d1bf94" transform="translate(-212.495 -24)"/><path d="M6008 104.081c-23.52 0-35.96-5.05-35.96-14.05C5972.04 77.304 5995.45 78 6008 78s35.96-.696 35.96 12.031c0 9-12.44 14.05-35.96 14.05Z" style="fill:#2baeef" transform="matrix(.94556 0 0 .9253 -5610.392 -17.305)"/><path d="M6008 102.948c-14.72 0-35.96-3-35.96-12 0-12.727 23.41-14 35.96-14s35.96 1.273 35.96 14c0 9-21.24 12-35.96 12Z" style="fill:#71c8f4" transform="matrix(.81519 0 0 .8897 -4827.122 -26.593)"/><path d="M6003.72 103.264c-20.75-.396-31.68-3.827-31.68-12.264 0-12.727 23.41-14.303 35.96-14.303l2.47.021c12.92.219 33.49 2.35 33.49 14.282 0 9-12.44 12.303-35.96 12.303l-4.28-.039Z" style="fill:#c7eafb" transform="matrix(.63111 0 0 .79273 -3721.21 -29.8)"/><path d="M284.5 39h-3c-6.904 0-12.5 5.596-12.5 12.5 0 3.888 1.775 7.362 4.56 9.655l2.751.332c.263.032.527.061.79.089C274.008 59.301 277.596 39 284.5 39Z" style="fill:#ef2e94" transform="translate(-212.495 -24)"/><path d="M277.101 61.576c4.137.436 8.312.378 12.436-.175l3.104-.415A12.47 12.47 0 0 0 297 51.5c0-6.904-5.596-12.5-12.5-12.5S272 44.596 272 51.5c0 4.135 2.007 7.8 5.101 10.076Z" style="fill:#f35dac" transform="translate(-212.495 -24)"/><path d="m4884.17 43.944 11.78 6.284-11.78 6.283" style="fill:none;stroke:#c9096e;stroke-width:4.71px" transform="matrix(.63656 0 0 .63656 -3043.57 -4.473)"/></svg>