<?xml version="1.0" standalone="no"?>
<!DOCTYPE svg PUBLIC "-//W3C//DTD SVG 20010904//EN"
 "http://www.w3.org/TR/2001/REC-SVG-20010904/DTD/svg10.dtd">
<svg version="1.0" xmlns="http://www.w3.org/2000/svg"
 width="988.000000pt" height="988.000000pt" viewBox="0 0 988.000000 988.000000"
 preserveAspectRatio="xMidYMid meet">
<metadata>
Created by potrace 1.14, written by Peter Selinger 2001-2017
</metadata>
<g transform="translate(0.000000,988.000000) scale(0.100000,-0.100000)"
fill="#000000" stroke="none">
<path d="M5758 9875 c-2 -2 -21 -6 -43 -9 -74 -11 -86 -15 -190 -66 -44 -22
-108 -62 -142 -89 -33 -27 -63 -47 -66 -45 -8 9 -73 16 -157 19 -62 1 -107 -4
-168 -21 -98 -26 -189 -70 -223 -106 -9 -10 -19 -18 -22 -18 -10 0 -70 -62
-102 -105 -17 -22 -33 -42 -36 -45 -28 -22 -87 -183 -96 -260 -8 -68 -3 -235
7 -235 1 0 3 -11 6 -25 2 -14 8 -34 13 -45 5 -11 15 -35 22 -53 19 -53 81
-143 133 -195 51 -50 136 -113 149 -109 4 1 7 -3 7 -8 0 -6 4 -10 9 -10 5 0
26 -8 47 -17 22 -9 44 -18 51 -19 6 -1 28 -8 49 -14 57 -19 238 -17 314 3 298
80 496 343 486 647 -3 82 -6 109 -20 165 -15 58 -85 190 -122 230 -17 19 -30
35 -27 35 2 0 -10 12 -29 27 -18 16 -42 36 -53 46 -11 10 -33 25 -48 33 -34
18 -30 25 36 68 72 45 161 77 228 81 69 4 95 16 103 51 9 35 0 58 -27 73 -20
10 -83 22 -89 16z"/>
<path d="M4316 8903 c-2 -2 -35 -6 -74 -9 -79 -5 -253 -38 -282 -54 -11 -6
-20 -9 -20 -6 0 9 -148 -58 -215 -97 -70 -41 -263 -226 -345 -332 -50 -64
-127 -211 -136 -259 -3 -16 -7 -33 -9 -37 -18 -28 -25 -185 -12 -244 5 -22 10
-47 11 -55 2 -17 34 -103 53 -139 7 -14 8 -30 4 -35 -5 -6 -7 -20 -5 -31 11
-66 14 -115 5 -115 -5 0 -47 -17 -93 -39 -107 -49 -115 -53 -163 -66 -119 -31
-274 -143 -360 -259 -36 -49 -101 -174 -97 -189 1 -4 -2 -16 -8 -27 -5 -10
-12 -36 -16 -57 -3 -21 -8 -47 -11 -57 -15 -53 1 -209 27 -272 11 -25 20 -51
20 -59 0 -22 -209 -117 -255 -115 -14 0 -145 -77 -185 -108 -61 -48 -89 -78
-137 -143 -35 -47 -84 -134 -93 -164 -6 -22 -9 -31 -19 -65 -26 -83 -35 -282
-18 -370 18 -96 89 -270 125 -308 23 -26 11 -41 -50 -63 -21 -7 -38 -17 -38
-22 0 -4 -4 -6 -8 -3 -5 3 -25 -6 -45 -19 -20 -14 -41 -25 -46 -25 -6 0 -11
-4 -11 -9 0 -5 -10 -13 -22 -17 -13 -4 -25 -9 -28 -13 -3 -3 -23 -19 -45 -35
-59 -43 -195 -183 -241 -246 -21 -30 -42 -56 -46 -58 -5 -2 -8 -12 -8 -22 0
-10 -3 -20 -7 -22 -25 -11 -100 -205 -130 -333 -18 -80 -24 -323 -10 -410 17
-106 27 -146 55 -225 9 -25 17 -48 18 -52 1 -5 3 -11 4 -15 1 -5 2 -11 1 -15
0 -5 4 -8 9 -8 6 0 10 -6 10 -14 0 -29 106 -212 174 -301 17 -22 82 -91 144
-153 127 -125 109 -91 172 -327 79 -296 112 -417 125 -460 8 -27 17 -59 19
-70 2 -11 14 -55 26 -97 11 -43 23 -86 25 -98 2 -11 6 -24 9 -28 3 -5 7 -20
10 -35 4 -15 8 -39 12 -54 3 -15 7 -30 10 -35 4 -7 30 -98 39 -138 2 -8 4 -15
5 -15 1 0 3 -7 5 -15 2 -8 6 -26 9 -40 3 -14 12 -50 21 -80 9 -30 17 -62 19
-70 4 -14 36 -134 56 -205 5 -16 21 -73 35 -125 15 -52 28 -99 30 -105 1 -5 5
-17 8 -25 3 -8 18 -60 33 -115 14 -55 47 -142 72 -194 37 -78 60 -109 131
-181 77 -78 224 -190 250 -190 5 0 11 -5 13 -11 2 -5 10 -11 19 -12 9 -2 27
-10 40 -18 21 -14 109 -53 233 -103 21 -9 48 -18 60 -21 11 -2 41 -12 66 -21
25 -9 52 -17 60 -19 8 -2 60 -16 115 -31 55 -14 109 -28 120 -29 11 -2 43 -9
70 -15 28 -6 60 -14 73 -16 12 -2 32 -5 45 -7 35 -7 120 -20 137 -22 8 -1 26
-5 40 -8 14 -3 48 -8 75 -11 28 -3 68 -8 90 -11 22 -3 63 -8 90 -10 28 -2 50
-4 50 -5 0 -3 90 -10 360 -26 178 -10 625 -5 805 11 153 13 177 15 215 20 22
2 63 7 90 10 78 8 128 15 155 20 14 2 43 7 65 10 39 5 62 9 115 20 14 2 39 7
57 10 18 3 63 12 100 20 37 9 79 18 93 20 14 3 57 14 95 25 39 11 95 27 125
36 30 9 62 18 70 21 8 4 17 7 20 8 22 8 50 19 78 31 18 8 38 14 44 14 15 0
262 122 266 132 2 4 8 8 14 8 5 0 37 20 69 45 33 25 64 45 70 45 5 0 7 5 4 10
-3 6 -2 10 3 10 9 0 92 79 122 116 28 34 80 121 80 132 0 5 4 12 8 14 7 2 113
343 127 404 2 11 20 77 40 148 20 71 39 137 41 145 4 18 22 88 29 111 2 8 18
67 35 130 17 63 34 122 37 130 3 8 5 18 5 22 -1 4 5 27 13 50 7 24 16 54 19
68 3 14 14 55 25 93 11 37 18 67 16 67 -2 0 2 15 10 33 7 17 14 37 14 42 1 6
6 28 12 50 6 22 13 51 16 64 2 14 6 28 9 33 3 4 7 16 9 25 2 10 15 61 30 113
14 52 28 106 31 120 2 14 9 36 13 50 5 14 19 63 31 110 31 123 35 132 93 168
143 90 339 279 424 408 7 11 25 37 39 59 55 82 125 251 141 340 8 44 11 60 13
60 4 0 8 78 9 155 0 75 -4 145 -9 145 -1 0 -3 16 -6 35 -19 142 -79 294 -172
435 -26 39 -51 75 -57 81 -5 6 -26 28 -45 50 -82 90 -201 178 -325 239 -33 16
-61 30 -63 31 -2 1 4 19 13 40 9 22 18 44 19 49 2 6 9 30 16 55 30 98 37 150
40 270 3 162 -43 319 -134 455 -50 75 -49 74 -117 143 -53 55 -132 122 -143
122 -3 0 -24 13 -48 29 -64 43 -187 97 -296 130 -53 16 -104 30 -112 30 -33 1
-86 14 -97 23 -7 6 -9 19 -4 36 11 40 6 220 -8 272 -18 67 -55 160 -63 160 -5
0 -8 5 -8 11 0 30 -109 156 -185 214 -109 83 -270 157 -429 197 -44 11 -82 21
-83 22 -1 1 3 19 8 41 18 74 24 202 13 290 -13 105 -83 240 -160 307 -49 43
-121 98 -129 98 -4 0 -19 8 -33 18 -43 29 -252 113 -315 126 -7 2 -19 6 -27 9
-8 3 -26 8 -40 10 -14 3 -43 11 -65 17 -22 6 -51 13 -65 15 -14 3 -36 8 -50
12 -14 3 -29 7 -35 9 -5 1 -26 5 -45 9 -19 3 -55 11 -80 16 -25 6 -56 13 -70
15 -14 2 -36 7 -50 11 -14 3 -27 7 -30 8 -3 0 -21 4 -40 8 -33 7 -49 10 -99
21 -49 11 -148 39 -166 47 -11 4 -39 13 -63 19 -24 6 -59 20 -78 30 -19 11
-37 19 -40 19 -3 -1 -33 16 -67 37 -137 84 -197 185 -191 324 1 38 5 78 9 89
5 16 0 19 -30 23 -20 2 -37 2 -39 1z"/>
</g>
</svg>
